<?xml version="1.0" encoding="UTF-8" standalone="no"?><!DOCTYPE svg PUBLIC "-//W3C//DTD SVG 1.1//EN" "http://www.w3.org/Graphics/SVG/1.1/DTD/svg11.dtd"><svg width="100%" height="100%" viewBox="0 0 283 247" version="1.1" xmlns="http://www.w3.org/2000/svg" xmlns:xlink="http://www.w3.org/1999/xlink" xml:space="preserve" xmlns:serif="http://www.serif.com/" style="fill-rule:evenodd;clip-rule:evenodd;stroke-linejoin:round;stroke-miterlimit:1.41421;"><g><path d="M0,158.774c0,22.36 14.67,36.304 37.612,36.304c8.424,0 15.826,-1.454 19.75,-3.194l-2.614,-16.266c-3.34,1.304 -7.41,2.178 -12.632,2.178c-10.748,0 -19.46,-6.828 -19.46,-19.892c-0.146,-11.62 7.402,-19.9 19.024,-19.9c5.808,0 9.728,1.022 12.342,2.182l3.482,-16.41c-4.646,-1.742 -11.034,-2.76 -16.84,-2.76c-26.434,0 -40.664,16.988 -40.664,37.758Z" style="fill:url(#_Linear1);fill-rule:nonzero;"/><path d="M230.796,144.25c-0.144,8.426 5.516,16.41 20.186,21.346c8.278,2.764 10.45,4.506 10.45,8.136c0,3.628 -2.756,5.954 -9.436,5.954c-6.532,0 -14.958,-2.906 -19.018,-5.37l-3.922,15.822c5.374,2.906 13.648,4.94 22.94,4.94c20.332,0 30.79,-9.734 30.79,-22.948c-0.146,-10.454 -5.808,-17.28 -19.314,-21.924c-8.712,-3.05 -11.476,-4.792 -11.476,-8.134c0,-3.628 3.054,-5.81 8.422,-5.81c6.1,0 12.2,2.326 15.4,4.068l3.916,-15.248c-4.358,-2.178 -11.758,-4.066 -20.042,-4.066c-17.566,0 -28.896,10.02 -28.896,23.234Z" style="fill:url(#_Linear2);fill-rule:nonzero;"/><path d="M152.498,129.438c0,20.478 12.488,34.71 30.06,34.71c8.128,0 14.956,-3.342 19.168,-9.298l0.292,0l0,4.646c0,13.072 -7.986,18.734 -18.446,18.734c-2.696,0 -5.33,-0.31 -7.836,-0.798c4.796,4.65 8.258,10.582 10.176,17.6c9.88,-0.224 19.736,-2.364 27.144,-8.668c7.984,-7.118 10.744,-18.296 10.744,-31.946l0,-60.702l-19.316,0l0,8.424l-0.288,0c-3.632,-5.81 -9.73,-10.02 -19.462,-10.02c-17.426,0 -32.236,14.522 -32.236,37.318Zm22.362,-0.434c0,-12.924 6.536,-20.184 14.522,-20.184c6.096,0 10.306,3.918 11.908,9.728c0.288,1.16 0.436,2.614 0.436,4.068l0,10.452c0,1.89 -0.148,4.212 -0.728,5.808c-1.452,5.232 -5.954,9.006 -11.616,9.006c-9.296,0 -14.522,-8.278 -14.522,-18.878Z" style="fill:url(#_Linear3);fill-rule:nonzero;"/><path d="M60.096,158.918c0,22.216 13.798,36.16 37.904,36.16c14.976,0 30.932,-5.976 41.542,-5.976c10.314,0 19.318,4.352 20.046,13.508l-45.748,0c-0.286,1.592 -0.726,4.934 -0.726,8.708c0,17.572 8.718,35.434 31.66,35.434c24.688,0 35.872,-19.892 35.872,-37.902c0,-22.216 -13.796,-36.158 -37.904,-36.158c-17.73,0 -26.416,5.974 -41.544,5.974c-10.312,0 -19.316,-4.35 -20.046,-13.506l45.748,0c0.288,-1.592 0.726,-4.934 0.726,-8.71c0,-17.57 -8.714,-35.434 -31.658,-35.434c-24.688,0 -35.872,19.896 -35.872,37.902Zm34.56,-23.236c10.17,0 12.496,9.004 12.496,14.376l-26.142,0c0.582,-5.952 4.356,-14.376 13.646,-14.376Zm38.934,82.03l26.14,0c-0.582,5.95 -4.356,14.374 -13.648,14.374c-10.17,0 -12.492,-9.002 -12.492,-14.374Z" style="fill:url(#_Linear4);fill-rule:nonzero;"/><path d="M208.358,55.736l-3.862,-7.376l0,36.854l19.304,0l0,-36.854l-3.862,7.37l-5.788,-44.22l-5.792,44.226Z" style="fill:url(#_Linear5);fill-rule:nonzero;"/><path d="M217.13,12.868l0,-5.962l5.958,0l0,5.962l-5.958,0Z" style="fill:url(#_Linear6);"/><path d="M205.212,12.868l0,-5.962l5.958,0l0,5.962l-5.958,0Z" style="fill:url(#_Linear7);"/><path d="M211.17,5.962l0,-5.962l5.96,0l0,5.962l-5.96,0Z" style="fill:url(#_Linear8);"/></g><defs><linearGradient id="_Linear1" x1="0" y1="0" x2="1" y2="0" gradientUnits="userSpaceOnUse" gradientTransform="matrix(-7.2e-06,162.744,-162.744,-7.2e-06,28.7512,51.5007)"><stop offset="0" style="stop-color:#fedd01;stop-opacity:1"/><stop offset="0.5" style="stop-color:#44a748;stop-opacity:1"/><stop offset="1" style="stop-color:#202759;stop-opacity:1"/></linearGradient><linearGradient id="_Linear2" x1="0" y1="0" x2="1" y2="0" gradientUnits="userSpaceOnUse" gradientTransform="matrix(-7.2e-06,162.744,-162.744,-7.2e-06,255.919,51.5007)"><stop offset="0" style="stop-color:#fedd01;stop-opacity:1"/><stop offset="0.5" style="stop-color:#44a748;stop-opacity:1"/><stop offset="1" style="stop-color:#202759;stop-opacity:1"/></linearGradient><linearGradient id="_Linear3" x1="0" y1="0" x2="1" y2="0" gradientUnits="userSpaceOnUse" gradientTransform="matrix(-7.2e-06,162.743,-162.743,-7.2e-06,188.148,51.5028)"><stop offset="0" style="stop-color:#fedd01;stop-opacity:1"/><stop offset="0.5" style="stop-color:#44a748;stop-opacity:1"/><stop offset="1" style="stop-color:#202759;stop-opacity:1"/></linearGradient><linearGradient id="_Linear4" x1="0" y1="0" x2="1" y2="0" gradientUnits="userSpaceOnUse" gradientTransform="matrix(-7.2e-06,162.744,-162.744,-7.2e-06,120.372,51.5028)"><stop offset="0" style="stop-color:#fedd01;stop-opacity:1"/><stop offset="0.5" style="stop-color:#44a748;stop-opacity:1"/><stop offset="1" style="stop-color:#202759;stop-opacity:1"/></linearGradient><linearGradient id="_Linear5" x1="0" y1="0" x2="1" y2="0" gradientUnits="userSpaceOnUse" gradientTransform="matrix(-7.2e-06,162.748,-162.748,-7.2e-06,214.147,48.0496)"><stop offset="0" style="stop-color:#fedd01;stop-opacity:1"/><stop offset="0.5" style="stop-color:#44a748;stop-opacity:1"/><stop offset="1" style="stop-color:#202759;stop-opacity:1"/></linearGradient><linearGradient id="_Linear6" x1="0" y1="0" x2="1" y2="0" gradientUnits="userSpaceOnUse" gradientTransform="matrix(-7.2e-06,162.719,-162.719,-7.2e-06,220.111,48.0438)"><stop offset="0" style="stop-color:#fedd01;stop-opacity:1"/><stop offset="0.5" style="stop-color:#44a748;stop-opacity:1"/><stop offset="1" style="stop-color:#202759;stop-opacity:1"/></linearGradient><linearGradient id="_Linear7" x1="0" y1="0" x2="1" y2="0" gradientUnits="userSpaceOnUse" gradientTransform="matrix(-7.2e-06,162.719,-162.719,-7.2e-06,208.193,48.0438)"><stop offset="0" style="stop-color:#fedd01;stop-opacity:1"/><stop offset="0.5" style="stop-color:#44a748;stop-opacity:1"/><stop offset="1" style="stop-color:#202759;stop-opacity:1"/></linearGradient><linearGradient id="_Linear8" x1="0" y1="0" x2="1" y2="0" gradientUnits="userSpaceOnUse" gradientTransform="matrix(-7.2e-06,162.719,-162.719,-7.2e-06,214.149,48.0438)"><stop offset="0" style="stop-color:#fedd01;stop-opacity:1"/><stop offset="0.5" style="stop-color:#44a748;stop-opacity:1"/><stop offset="1" style="stop-color:#202759;stop-opacity:1"/></linearGradient></defs></svg>