<?xml version="1.0" encoding="UTF-8" standalone="no"?><!DOCTYPE svg PUBLIC "-//W3C//DTD SVG 1.1//EN" "http://www.w3.org/Graphics/SVG/1.1/DTD/svg11.dtd"><svg width="100%" height="100%" viewBox="0 0 384 247" version="1.1" xmlns="http://www.w3.org/2000/svg" xmlns:xlink="http://www.w3.org/1999/xlink" xml:space="preserve" xmlns:serif="http://www.serif.com/" style="fill-rule:evenodd;clip-rule:evenodd;stroke-linejoin:round;stroke-miterlimit:1.41421;"><g><path d="M304.074,134.933c-0.386,0.186 -1.302,0.416 -2.462,0.416c-3.334,0 -5.052,-2.09 -5.052,-4.854c0,-3.29 2.346,-5.108 5.266,-5.108c1.132,0 1.99,0.228 2.378,0.428l-0.46,1.718c-0.43,-0.186 -1.044,-0.358 -1.832,-0.358c-1.716,0 -3.062,1.044 -3.062,3.208c0,1.93 1.144,3.148 3.078,3.148c0.672,0 1.386,-0.13 1.832,-0.314l0.314,1.716Z" style="fill:#fff;fill-rule:nonzero;"/><path d="M309.408,130.882c0,-0.516 -0.228,-1.416 -1.216,-1.416c-0.93,0 -1.302,0.844 -1.36,1.416l2.576,0Zm-2.562,1.488c0.072,0.916 0.96,1.346 1.976,1.346c0.744,0 1.346,-0.1 1.932,-0.3l0.288,1.474c-0.718,0.3 -1.59,0.444 -2.536,0.444c-2.374,0 -3.734,-1.374 -3.734,-3.578c0,-1.774 1.116,-3.736 3.536,-3.736c2.26,0 3.118,1.76 3.118,3.492c0,0.372 -0.042,0.702 -0.07,0.874l-4.51,-0.016Z" style="fill:#fff;fill-rule:nonzero;"/><path d="M312.728,130.425c0,-0.872 -0.03,-1.604 -0.058,-2.232l1.89,0l0.098,0.972l0.044,0c0.286,-0.458 0.988,-1.13 2.162,-1.13c1.432,0 2.504,0.958 2.504,3.018l0,4.138l-2.176,0l0,-3.88c0,-0.902 -0.314,-1.516 -1.102,-1.516c-0.602,0 -0.958,0.416 -1.114,0.816c-0.06,0.142 -0.074,0.344 -0.074,0.542l0,4.038l-2.174,0l0,-4.766Z" style="fill:#fff;fill-rule:nonzero;"/><path d="M323.458,126.288l0,1.904l1.56,0l0,1.602l-1.56,0l0,2.548c0,0.844 0.214,1.232 0.856,1.232c0.302,0 0.446,-0.014 0.646,-0.058l0.016,1.646c-0.274,0.1 -0.804,0.186 -1.406,0.186c-0.7,0 -1.286,-0.244 -1.644,-0.6c-0.4,-0.416 -0.602,-1.088 -0.602,-2.078l0,-2.876l-0.93,0l0,-1.602l0.93,0l0,-1.318l2.134,-0.586Z" style="fill:#fff;fill-rule:nonzero;"/><path d="M326.574,130.495c0,-1.03 -0.012,-1.704 -0.056,-2.302l1.862,0l0.086,1.3l0.056,0c0.358,-1.03 1.204,-1.458 1.888,-1.458c0.202,0 0.302,0.012 0.46,0.042l0,2.048c-0.186,-0.03 -0.358,-0.058 -0.602,-0.058c-0.8,0 -1.346,0.414 -1.488,1.102c-0.03,0.142 -0.044,0.3 -0.044,0.486l0,3.536l-2.174,0l0.012,-4.696Z" style="fill:#fff;fill-rule:nonzero;"/><path d="M335.562,131.884c-1.146,0 -2.032,0.272 -2.032,1.102c0,0.558 0.37,0.83 0.858,0.83c0.53,0 0.988,-0.358 1.13,-0.802c0.03,-0.112 0.044,-0.242 0.044,-0.37l0,-0.76Zm2.104,1.618c0,0.658 0.028,1.302 0.114,1.688l-1.962,0l-0.128,-0.7l-0.044,0c-0.456,0.558 -1.172,0.858 -2.002,0.858c-1.416,0 -2.26,-1.03 -2.26,-2.148c0,-1.816 1.63,-2.676 4.106,-2.676l0,-0.086c0,-0.37 -0.2,-0.902 -1.274,-0.902c-0.716,0 -1.474,0.244 -1.932,0.516l-0.4,-1.388c0.486,-0.272 1.444,-0.63 2.718,-0.63c2.334,0 3.064,1.374 3.064,3.02l0,2.448Z" style="fill:#fff;fill-rule:nonzero;"/><rect x="339.394" y="125.028" width="2.176" height="10.162" style="fill:#fff;"/><path d="M300.652,145.868c-1.144,0 -2.03,0.272 -2.03,1.102c0,0.558 0.37,0.83 0.856,0.83c0.532,0 0.99,-0.358 1.132,-0.802c0.03,-0.112 0.042,-0.242 0.042,-0.37l0,-0.76Zm2.106,1.618c0,0.658 0.028,1.302 0.114,1.688l-1.962,0l-0.128,-0.7l-0.044,0c-0.456,0.558 -1.174,0.858 -2.004,0.858c-1.416,0 -2.258,-1.03 -2.258,-2.148c0,-1.816 1.63,-2.676 4.106,-2.676l0,-0.086c0,-0.37 -0.2,-0.902 -1.274,-0.902c-0.716,0 -1.474,0.244 -1.932,0.516l-0.4,-1.388c0.486,-0.272 1.444,-0.63 2.718,-0.63c2.334,0 3.064,1.374 3.064,3.02l0,2.448Z" style="fill:#fff;fill-rule:nonzero;"/><path d="M304.486,144.409c0,-0.874 -0.028,-1.604 -0.056,-2.232l1.888,0l0.1,0.972l0.044,0c0.286,-0.458 0.988,-1.13 2.162,-1.13c1.432,0 2.504,0.958 2.504,3.018l0,4.138l-2.176,0l0,-3.88c0,-0.902 -0.314,-1.518 -1.102,-1.518c-0.602,0 -0.958,0.418 -1.116,0.818c-0.058,0.142 -0.072,0.344 -0.072,0.542l0,4.038l-2.176,0l0,-4.766Z" style="fill:#fff;fill-rule:nonzero;"/><path d="M317.478,145.153c0,-0.128 0,-0.272 -0.028,-0.4c-0.13,-0.588 -0.602,-1.06 -1.274,-1.06c-1.002,0 -1.504,0.888 -1.504,1.99c0,1.174 0.588,1.918 1.488,1.918c0.632,0 1.148,-0.43 1.276,-1.046c0.028,-0.142 0.042,-0.314 0.042,-0.486l0,-0.916Zm2.176,-6.14l0,8.072c0,0.8 0.028,1.618 0.058,2.09l-1.932,0l-0.086,-1.016l-0.044,0c-0.428,0.772 -1.288,1.174 -2.19,1.174c-1.66,0 -2.99,-1.418 -2.99,-3.594c-0.014,-2.348 1.458,-3.72 3.134,-3.72c0.874,0 1.532,0.314 1.846,0.786l0.028,0l0,-3.792l2.176,0Z" style="fill:#fff;fill-rule:nonzero;"/><path d="M330.096,145.095l-3.548,0l0,2.292l3.964,0l0,1.788l-6.14,0l0,-9.646l5.94,0l0,1.788l-3.764,0l0,2.004l3.548,0l0,1.774Z" style="fill:#fff;fill-rule:nonzero;"/><path d="M335.634,145.868c-1.146,0 -2.032,0.272 -2.032,1.102c0,0.558 0.372,0.83 0.858,0.83c0.53,0 0.988,-0.358 1.13,-0.802c0.03,-0.112 0.044,-0.242 0.044,-0.37l0,-0.76Zm2.104,1.618c0,0.658 0.028,1.302 0.114,1.688l-1.96,0l-0.13,-0.7l-0.042,0c-0.458,0.558 -1.174,0.858 -2.004,0.858c-1.416,0 -2.26,-1.03 -2.26,-2.148c0,-1.816 1.63,-2.676 4.106,-2.676l0,-0.086c0,-0.37 -0.2,-0.902 -1.274,-0.902c-0.716,0 -1.474,0.244 -1.932,0.516l-0.4,-1.388c0.486,-0.272 1.444,-0.63 2.718,-0.63c2.334,0 3.064,1.374 3.064,3.02l0,2.448Z" style="fill:#fff;fill-rule:nonzero;"/><path d="M339.452,147.286c0.4,0.242 1.23,0.514 1.874,0.514c0.658,0 0.93,-0.214 0.93,-0.572c0,-0.372 -0.214,-0.544 -1.016,-0.816c-1.46,-0.472 -2.018,-1.274 -2.004,-2.09c0,-1.316 1.116,-2.304 2.848,-2.304c0.816,0 1.532,0.202 1.962,0.414l-0.374,1.49c-0.314,-0.158 -0.93,-0.386 -1.516,-0.386c-0.528,0 -0.83,0.214 -0.83,0.558c0,0.342 0.272,0.514 1.132,0.814c1.33,0.444 1.874,1.132 1.888,2.148c0,1.318 -1.016,2.276 -3.02,2.276c-0.916,0 -1.732,-0.214 -2.262,-0.502l0.388,-1.544Z" style="fill:#fff;fill-rule:nonzero;"/><path d="M348.108,140.273l0,1.904l1.56,0l0,1.602l-1.56,0l0,2.548c0,0.844 0.214,1.232 0.858,1.232c0.3,0 0.444,-0.014 0.644,-0.058l0.016,1.644c-0.274,0.102 -0.804,0.188 -1.404,0.188c-0.702,0 -1.288,-0.244 -1.646,-0.602c-0.402,-0.414 -0.6,-1.086 -0.6,-2.076l0,-2.876l-0.93,0l0,-1.602l0.93,0l0,-1.318l2.132,-0.586Z" style="fill:#fff;fill-rule:nonzero;"/><path d="M355.09,144.866c0,-0.516 -0.228,-1.416 -1.216,-1.416c-0.93,0 -1.304,0.844 -1.36,1.416l2.576,0Zm-2.562,1.488c0.072,0.916 0.958,1.346 1.976,1.346c0.744,0 1.346,-0.1 1.932,-0.3l0.288,1.474c-0.718,0.3 -1.59,0.444 -2.536,0.444c-2.376,0 -3.734,-1.374 -3.734,-3.58c0,-1.772 1.114,-3.734 3.534,-3.734c2.262,0 3.12,1.76 3.12,3.492c0,0.372 -0.044,0.702 -0.07,0.874l-4.51,-0.016Z" style="fill:#fff;fill-rule:nonzero;"/><path d="M358.42,144.48c0,-1.03 -0.014,-1.704 -0.056,-2.302l1.862,0l0.086,1.3l0.056,0c0.358,-1.03 1.202,-1.458 1.888,-1.458c0.202,0 0.302,0.012 0.46,0.042l0,2.046c-0.186,-0.028 -0.358,-0.056 -0.602,-0.056c-0.802,0 -1.346,0.414 -1.488,1.102c-0.03,0.142 -0.044,0.3 -0.044,0.486l0,3.536l-2.176,0l0.014,-4.696Z" style="fill:#fff;fill-rule:nonzero;"/><path d="M363.83,144.409c0,-0.874 -0.028,-1.604 -0.056,-2.232l1.888,0l0.1,0.972l0.044,0c0.286,-0.458 0.988,-1.13 2.162,-1.13c1.43,0 2.504,0.958 2.504,3.018l0,4.138l-2.176,0l0,-3.88c0,-0.902 -0.316,-1.518 -1.102,-1.518c-0.602,0 -0.96,0.418 -1.116,0.818c-0.058,0.142 -0.072,0.344 -0.072,0.542l0,4.038l-2.176,0l0,-4.766Z" style="fill:#fff;fill-rule:nonzero;"/><path d="M302.742,159.081l-3.548,0l0,2.292l3.964,0l0,1.788l-6.14,0l0,-9.646l5.94,0l0,1.788l-3.764,0l0,2.004l3.548,0l0,1.774Z" style="fill:#fff;fill-rule:nonzero;"/><path d="M311.026,160.913c0,0.916 0.03,1.662 0.058,2.248l-1.89,0l-0.1,-0.988l-0.042,0c-0.272,0.43 -0.93,1.146 -2.19,1.146c-1.432,0 -2.464,-0.888 -2.464,-3.048l0,-4.108l2.176,0l0,3.764c0,1.016 0.33,1.63 1.104,1.63c0.6,0 0.958,-0.414 1.086,-0.758c0.058,-0.128 0.086,-0.286 0.086,-0.472l0,-4.164l2.176,0l0,4.75Z" style="fill:#fff;fill-rule:nonzero;"/><path d="M312.784,158.466c0,-1.03 -0.014,-1.704 -0.056,-2.302l1.86,0l0.086,1.3l0.056,0c0.358,-1.03 1.204,-1.458 1.89,-1.458c0.2,0 0.3,0.012 0.458,0.042l0,2.046c-0.184,-0.028 -0.356,-0.056 -0.6,-0.056c-0.802,0 -1.346,0.414 -1.49,1.102c-0.028,0.142 -0.042,0.3 -0.042,0.486l0,3.536l-2.176,0l0.014,-4.696Z" style="fill:#fff;fill-rule:nonzero;"/><path d="M321.37,161.759c0.858,0 1.388,-0.846 1.388,-2.104c0,-1.03 -0.402,-2.09 -1.388,-2.09c-1.032,0 -1.432,1.06 -1.432,2.104c0,1.188 0.502,2.09 1.416,2.09l0.016,0Zm-0.044,1.56c-2.046,0 -3.62,-1.346 -3.62,-3.608c0,-2.26 1.488,-3.706 3.75,-3.706c2.132,0 3.562,1.474 3.562,3.592c0,2.548 -1.816,3.722 -3.678,3.722l-0.014,0Z" style="fill:#fff;fill-rule:nonzero;"/><path d="M328.538,160.155c0,0.172 0.014,0.314 0.042,0.458c0.144,0.586 0.646,1.03 1.274,1.03c0.946,0 1.504,-0.786 1.504,-1.974c0,-1.118 -0.502,-1.962 -1.474,-1.962c-0.616,0 -1.16,0.458 -1.304,1.102c-0.028,0.116 -0.042,0.258 -0.042,0.386l0,0.96Zm-2.176,-1.646c0,-0.916 -0.03,-1.688 -0.056,-2.346l1.888,0l0.1,0.972l0.028,0c0.516,-0.73 1.318,-1.13 2.332,-1.13c1.534,0 2.908,1.33 2.908,3.564c0,2.546 -1.618,3.75 -3.178,3.75c-0.844,0 -1.502,-0.344 -1.818,-0.802l-0.028,0l0,3.478l-2.176,0l0,-7.486Z" style="fill:#fff;fill-rule:nonzero;"/><path d="M339.196,158.853c0,-0.516 -0.228,-1.416 -1.218,-1.416c-0.928,0 -1.302,0.844 -1.358,1.416l2.576,0Zm-2.562,1.488c0.072,0.916 0.958,1.346 1.976,1.346c0.744,0 1.346,-0.1 1.932,-0.3l0.286,1.474c-0.716,0.3 -1.59,0.442 -2.534,0.442c-2.376,0 -3.734,-1.372 -3.734,-3.576c0,-1.774 1.114,-3.736 3.534,-3.736c2.262,0 3.12,1.76 3.12,3.492c0,0.372 -0.044,0.702 -0.07,0.874l-4.51,-0.016Z" style="fill:#fff;fill-rule:nonzero;"/><path d="M346.232,159.855c-1.144,0 -2.03,0.272 -2.03,1.102c0,0.558 0.37,0.832 0.858,0.832c0.53,0 0.988,-0.36 1.13,-0.804c0.03,-0.114 0.042,-0.242 0.042,-0.37l0,-0.76Zm2.106,1.618c0,0.658 0.028,1.302 0.114,1.688l-1.962,0l-0.128,-0.7l-0.044,0c-0.456,0.558 -1.174,0.858 -2.004,0.858c-1.416,0 -2.258,-1.03 -2.258,-2.148c0,-1.816 1.63,-2.676 4.106,-2.676l0,-0.086c0,-0.37 -0.2,-0.902 -1.274,-0.902c-0.716,0 -1.474,0.244 -1.932,0.516l-0.4,-1.388c0.486,-0.272 1.444,-0.63 2.718,-0.63c2.334,0 3.064,1.374 3.064,3.02l0,2.448Z" style="fill:#fff;fill-rule:nonzero;"/><path d="M350.066,158.396c0,-0.874 -0.028,-1.604 -0.056,-2.232l1.888,0l0.1,0.972l0.044,0c0.286,-0.458 0.988,-1.13 2.162,-1.13c1.432,0 2.504,0.958 2.504,3.018l0,4.138l-2.176,0l0,-3.88c0,-0.902 -0.314,-1.516 -1.102,-1.516c-0.602,0 -0.958,0.416 -1.116,0.816c-0.058,0.142 -0.072,0.344 -0.072,0.542l0,4.038l-2.176,0l0,-4.766Z" style="fill:#fff;fill-rule:nonzero;"/><path d="M305.062,176.702c-0.672,0.228 -1.946,0.542 -3.22,0.542c-1.762,0 -3.034,-0.442 -3.922,-1.286c-0.872,-0.846 -1.36,-2.104 -1.36,-3.522c0.014,-3.204 2.346,-5.036 5.51,-5.036c1.244,0 2.204,0.242 2.676,0.456l-0.456,1.76c-0.53,-0.242 -1.174,-0.414 -2.234,-0.414c-1.818,0 -3.206,1.032 -3.206,3.118c0,2.004 1.26,3.166 3.048,3.166c0.488,0 0.888,-0.058 1.06,-0.13l0,-2.034l-1.488,0l0,-1.702l3.592,0l0,5.082Z" style="fill:#fff;fill-rule:nonzero;"/><path d="M310.524,173.839c-1.144,0 -2.032,0.272 -2.032,1.102c0,0.558 0.372,0.832 0.858,0.832c0.532,0 0.988,-0.36 1.13,-0.804c0.03,-0.114 0.044,-0.242 0.044,-0.37l0,-0.76Zm2.106,1.618c0,0.658 0.026,1.302 0.112,1.688l-1.96,0l-0.13,-0.7l-0.042,0c-0.458,0.558 -1.174,0.858 -2.004,0.858c-1.416,0 -2.26,-1.03 -2.26,-2.148c0,-1.816 1.632,-2.676 4.108,-2.676l0,-0.086c0,-0.37 -0.202,-0.902 -1.276,-0.902c-0.714,0 -1.472,0.244 -1.932,0.516l-0.4,-1.388c0.486,-0.272 1.446,-0.63 2.718,-0.63c2.334,0 3.066,1.374 3.066,3.02l0,2.448Z" style="fill:#fff;fill-rule:nonzero;"/><path d="M314.358,172.38c0,-0.872 -0.03,-1.604 -0.056,-2.232l1.844,0l0.086,0.958l0.044,0c0.3,-0.458 0.93,-1.116 2.118,-1.116c0.918,0 1.618,0.472 1.918,1.2l0.028,0c0.272,-0.37 0.572,-0.658 0.916,-0.856c0.388,-0.216 0.816,-0.344 1.332,-0.344c1.346,0 2.362,0.944 2.362,3.032l0,4.124l-2.12,0l0,-3.794c0,-1.014 -0.328,-1.602 -1.028,-1.602c-0.516,0 -0.86,0.342 -1.018,0.758c-0.044,0.158 -0.07,0.372 -0.07,0.544l0,4.094l-2.12,0l0,-3.922c0,-0.874 -0.314,-1.474 -1.016,-1.474c-0.558,0 -0.888,0.428 -1.016,0.772c-0.072,0.172 -0.084,0.374 -0.084,0.56l0,4.064l-2.12,0l0,-4.766Z" style="fill:#fff;fill-rule:nonzero;"/><path d="M330.896,172.837c0,-0.516 -0.228,-1.416 -1.216,-1.416c-0.93,0 -1.302,0.844 -1.36,1.416l2.576,0Zm-2.562,1.488c0.072,0.916 0.96,1.346 1.978,1.346c0.744,0 1.344,-0.1 1.93,-0.3l0.288,1.474c-0.718,0.3 -1.59,0.444 -2.536,0.444c-2.374,0 -3.734,-1.374 -3.734,-3.578c0,-1.774 1.116,-3.736 3.536,-3.736c2.262,0 3.118,1.76 3.118,3.492c0,0.372 -0.042,0.702 -0.07,0.874l-4.51,-0.016Z" style="fill:#fff;fill-rule:nonzero;"/><path d="M337.246,174.913c0.572,0.3 1.488,0.602 2.42,0.602c1.002,0 1.532,-0.416 1.532,-1.062c0,-0.584 -0.46,-0.942 -1.618,-1.344c-1.602,-0.572 -2.662,-1.46 -2.662,-2.876c0,-1.646 1.39,-2.892 3.648,-2.892c1.104,0 1.892,0.214 2.464,0.486l-0.486,1.746c-0.374,-0.186 -1.074,-0.456 -2.004,-0.456c-0.946,0 -1.402,0.442 -1.402,0.928c0,0.616 0.528,0.89 1.788,1.376c1.704,0.628 2.49,1.518 2.49,2.89c0,1.618 -1.23,2.992 -3.878,2.992c-1.102,0 -2.19,-0.3 -2.734,-0.6l0.442,-1.79Z" style="fill:#fff;fill-rule:nonzero;"/><path d="M347.192,168.243l0,1.904l1.56,0l0,1.602l-1.56,0l0,2.548c0,0.844 0.214,1.232 0.858,1.232c0.3,0 0.444,-0.014 0.644,-0.058l0.016,1.646c-0.274,0.1 -0.804,0.186 -1.404,0.186c-0.702,0 -1.288,-0.244 -1.646,-0.6c-0.4,-0.416 -0.6,-1.088 -0.6,-2.078l0,-2.876l-0.93,0l0,-1.602l0.93,0l0,-1.318l2.132,-0.586Z" style="fill:#fff;fill-rule:nonzero;"/><path d="M356.608,174.898c0,0.916 0.03,1.662 0.058,2.248l-1.89,0l-0.1,-0.988l-0.042,0c-0.272,0.43 -0.93,1.146 -2.19,1.146c-1.432,0 -2.464,-0.888 -2.464,-3.048l0,-4.108l2.176,0l0,3.764c0,1.016 0.33,1.63 1.104,1.63c0.6,0 0.958,-0.414 1.086,-0.758c0.058,-0.128 0.086,-0.286 0.086,-0.472l0,-4.164l2.176,0l0,4.75Z" style="fill:#fff;fill-rule:nonzero;"/><path d="M362.96,173.124c0,-0.13 0,-0.272 -0.03,-0.4c-0.128,-0.588 -0.602,-1.06 -1.274,-1.06c-1.002,0 -1.504,0.888 -1.504,1.99c0,1.174 0.588,1.918 1.49,1.918c0.63,0 1.146,-0.43 1.274,-1.046c0.028,-0.142 0.044,-0.314 0.044,-0.486l0,-0.916Zm2.176,-6.14l0,8.072c0,0.8 0.026,1.616 0.056,2.09l-1.932,0l-0.086,-1.016l-0.042,0c-0.43,0.772 -1.29,1.174 -2.192,1.174c-1.66,0 -2.99,-1.418 -2.99,-3.594c-0.014,-2.348 1.458,-3.72 3.134,-3.72c0.874,0 1.532,0.314 1.846,0.786l0.03,0l0,-3.792l2.176,0Z" style="fill:#fff;fill-rule:nonzero;"/><path d="M366.878,170.148l2.176,0l0,6.998l-2.176,0l0,-6.998Zm1.074,-0.916c-0.73,0 -1.204,-0.516 -1.204,-1.162c0,-0.658 0.486,-1.16 1.23,-1.16c0.746,0 1.204,0.502 1.218,1.16c0,0.646 -0.472,1.162 -1.23,1.162l-0.014,0Z" style="fill:#fff;fill-rule:nonzero;"/><path d="M375.034,172.837c0,-0.516 -0.228,-1.416 -1.218,-1.416c-0.928,0 -1.302,0.844 -1.358,1.416l2.576,0Zm-2.562,1.488c0.072,0.916 0.958,1.346 1.976,1.346c0.744,0 1.346,-0.1 1.932,-0.3l0.286,1.474c-0.716,0.3 -1.59,0.444 -2.534,0.444c-2.376,0 -3.736,-1.374 -3.736,-3.578c0,-1.774 1.116,-3.736 3.536,-3.736c2.262,0 3.12,1.76 3.12,3.492c0,0.372 -0.044,0.702 -0.072,0.874l-4.508,-0.016Z" style="fill:#fff;fill-rule:nonzero;"/><path d="M378.336,175.257c0.4,0.242 1.23,0.516 1.876,0.516c0.658,0 0.93,-0.216 0.93,-0.574c0,-0.372 -0.216,-0.544 -1.016,-0.816c-1.462,-0.472 -2.02,-1.274 -2.004,-2.088c0,-1.318 1.114,-2.306 2.848,-2.306c0.816,0 1.53,0.202 1.96,0.414l-0.372,1.49c-0.316,-0.158 -0.93,-0.386 -1.516,-0.386c-0.53,0 -0.83,0.214 -0.83,0.558c0,0.342 0.27,0.514 1.13,0.814c1.33,0.444 1.876,1.132 1.888,2.148c0,1.318 -1.014,2.276 -3.018,2.276c-0.916,0 -1.734,-0.214 -2.262,-0.502l0.386,-1.544Z" style="fill:#fff;fill-rule:nonzero;"/><path d="M296.674,191.13l0,-1.316l1.188,-1.074c2.046,-1.832 3.034,-2.878 3.048,-3.964c0,-0.758 -0.442,-1.36 -1.516,-1.36c-0.802,0 -1.502,0.4 -1.99,0.76l-0.614,-1.548c0.686,-0.528 1.788,-0.958 3.032,-0.958c2.12,0 3.264,1.23 3.264,2.92c0,1.56 -1.114,2.804 -2.476,4.008l-0.858,0.714l0,0.03l3.52,0l0,1.788l-6.598,0Z" style="fill:#fff;fill-rule:nonzero;"/><path d="M307.978,189.642c0.844,0 1.302,-1.058 1.302,-3.178c0,-2.06 -0.444,-3.148 -1.316,-3.148c-0.818,0 -1.332,1.044 -1.332,3.148c-0.014,2.146 0.502,3.178 1.332,3.178l0.014,0Zm-0.028,1.646c-2.406,0 -3.466,-2.162 -3.478,-4.794c0,-2.706 1.13,-4.824 3.534,-4.824c2.476,0 3.464,2.218 3.464,4.766c0,2.862 -1.158,4.852 -3.506,4.852l-0.014,0Z" style="fill:#fff;fill-rule:nonzero;"/><path d="M314.744,183.759l-0.026,0l-1.776,0.844l-0.358,-1.632l2.478,-1.144l1.788,0l0,9.302l-2.106,0l0,-7.37Z" style="fill:#fff;fill-rule:nonzero;"/><path d="M323,183.144c-0.744,0 -1.114,0.5 -1.114,1.074c0,0.63 0.556,1.03 1.3,1.258c0.502,-0.142 0.946,-0.6 0.946,-1.174c0,-0.586 -0.328,-1.158 -1.116,-1.158l-0.016,0Zm0.03,6.64c0.758,0 1.274,-0.5 1.274,-1.158c0,-0.816 -0.616,-1.302 -1.46,-1.532c-0.716,0.2 -1.13,0.716 -1.13,1.388c-0.016,0.674 0.5,1.302 1.302,1.302l0.014,0Zm0.042,-8.114c2.176,0 3.076,1.26 3.076,2.39c0,0.8 -0.426,1.588 -1.358,2.048l0,0.042c0.916,0.344 1.718,1.116 1.718,2.304c0,1.688 -1.418,2.834 -3.578,2.834c-2.364,0 -3.452,-1.332 -3.452,-2.592c0,-1.114 0.646,-1.888 1.664,-2.332l0,-0.028c-0.904,-0.474 -1.346,-1.232 -1.346,-2.048c0,-1.574 1.416,-2.618 3.264,-2.618l0.012,0Z" style="fill:#fff;fill-rule:nonzero;"/><path d="M214.15,5.96c1.65,0 2.982,-1.332 2.982,-2.982c0,-1.646 -1.332,-2.978 -2.982,-2.978c-1.646,0 -2.978,1.332 -2.978,2.978c0,1.65 1.332,2.982 2.978,2.982" style="fill:#fff;fill-rule:nonzero;"/><path d="M220.112,12.866c1.646,0 2.978,-1.332 2.978,-2.98c0,-1.648 -1.332,-2.98 -2.978,-2.98c-1.648,0 -2.98,1.332 -2.98,2.98c0,1.648 1.332,2.98 2.98,2.98" style="fill:#fff;fill-rule:nonzero;"/><path d="M208.192,12.866c1.646,0 2.98,-1.332 2.98,-2.98c0,-1.648 -1.334,-2.98 -2.98,-2.98c-1.646,0 -2.978,1.332 -2.978,2.98c0,1.648 1.332,2.98 2.978,2.98" style="fill:#fff;fill-rule:nonzero;"/><path d="M41.682,138.003c5.806,0 9.726,1.02 12.34,2.182l3.484,-16.41c-4.646,-1.742 -11.034,-2.76 -16.842,-2.76c-26.432,0 -40.664,16.988 -40.664,37.758c0,22.358 14.67,36.302 37.614,36.302c8.424,0 15.826,-1.452 19.75,-3.194l-2.614,-16.264c-3.342,1.304 -7.41,2.176 -12.632,2.176c-10.748,0 -19.46,-6.828 -19.46,-19.892c-0.146,-11.618 7.4,-19.898 19.024,-19.898" style="fill:#fff;fill-rule:nonzero;"/><path d="M263.472,150.204c-8.712,-3.05 -11.474,-4.792 -11.474,-8.132c0,-3.63 3.052,-5.812 8.422,-5.812c6.1,0 12.2,2.324 15.398,4.068l3.918,-15.248c-4.358,-2.176 -11.758,-4.066 -20.044,-4.066c-17.566,0 -28.894,10.02 -28.894,23.234c-0.144,8.426 5.516,16.412 20.186,21.346c8.276,2.764 10.45,4.506 10.45,8.138c0,3.626 -2.756,5.952 -9.436,5.952c-6.532,0 -14.958,-2.906 -19.02,-5.37l-3.922,15.822c5.376,2.908 13.65,4.94 22.942,4.94c20.33,0 30.788,-9.734 30.788,-22.948c-0.146,-10.454 -5.806,-17.28 -19.314,-21.924" style="fill:#fff;fill-rule:nonzero;"/><path d="M201.728,133.066c0,1.89 -0.148,4.21 -0.728,5.808c-1.452,5.232 -5.954,9.008 -11.616,9.008c-9.296,0 -14.522,-8.278 -14.522,-18.878c0,-12.924 6.536,-20.186 14.522,-20.186c6.096,0 10.306,3.918 11.908,9.728c0.288,1.16 0.436,2.614 0.436,4.068l0,10.452Zm2.756,-30.928l-0.288,0c-3.63,-5.81 -9.728,-10.02 -19.462,-10.02c-17.426,0 -32.236,14.522 -32.236,37.318c0,20.478 12.488,34.71 30.06,34.71c8.13,0 14.958,-3.342 19.17,-9.296l0.29,0l0,4.646c0,13.07 -7.986,18.734 -18.446,18.734c-2.694,0 -5.33,-0.312 -7.836,-0.798c4.796,4.65 8.258,10.58 10.178,17.598c9.878,-0.222 19.736,-2.362 27.142,-8.668c7.986,-7.116 10.744,-18.296 10.744,-31.944l0,-60.704l-19.316,0l0,8.424Z" style="fill:#fff;fill-rule:nonzero;"/><path d="M146.085,232.086c-10.17,0 -12.492,-9.004 -12.492,-14.376l26.138,0c-0.58,5.952 -4.356,14.376 -13.646,14.376m-51.426,-96.404c10.17,0 12.494,9.004 12.494,14.374l-26.14,0c0.582,-5.95 4.356,-14.374 13.646,-14.374m48.084,37.01c-17.73,0 -26.414,5.974 -41.542,5.974c-10.314,0 -19.318,-4.352 -20.046,-13.506l45.746,0c0.29,-1.594 0.726,-4.936 0.726,-8.712c0,-17.57 -8.714,-35.432 -31.658,-35.432c-24.686,0 -35.87,19.894 -35.87,37.902c0,22.214 13.796,36.158 37.902,36.158c14.978,0 30.934,-5.974 41.542,-5.974c10.314,0 19.318,4.35 20.046,13.506l-45.746,0c-0.288,1.592 -0.726,4.934 -0.726,8.71c0,17.57 8.716,35.432 31.66,35.432c24.686,0 35.87,-19.892 35.87,-37.9c0,-22.216 -13.796,-36.158 -37.904,-36.158" style="fill:#fff;fill-rule:nonzero;"/><path d="M219.94,55.728l-5.79,-44.22l-5.792,44.226l-3.86,-7.376l0,36.854l19.302,0l0,-36.854l-3.86,7.37Z" style="fill:#fff;fill-rule:nonzero;"/></g></svg>