<?xml version="1.0" encoding="UTF-8" standalone="no"?><!DOCTYPE svg PUBLIC "-//W3C//DTD SVG 1.1//EN" "http://www.w3.org/Graphics/SVG/1.1/DTD/svg11.dtd"><svg width="100%" height="100%" viewBox="0 0 1400 980" version="1.1" xmlns="http://www.w3.org/2000/svg" xmlns:xlink="http://www.w3.org/1999/xlink" xml:space="preserve" xmlns:serif="http://www.serif.com/" style="fill-rule:evenodd;clip-rule:evenodd;stroke-linejoin:round;stroke-miterlimit:1.41421;"><g><rect x="-0.924" y="-0.004" width="1400" height="980" style="fill:#f9f4cf;"/><rect x="2" y="877" width="1400" height="104" style="fill:#5f7f77;"/><rect x="2" y="807" width="1400" height="70" style="fill:#2a4b4c;"/><path d="M849.1,488.5l-0.8,-14.3l-5.9,0.3l-1.2,-119.5l9,-19.2l0.3,-4l7.2,0l0,-5.5l-7.2,-0.5l0,-22.5l-9.2,-57.8l0,-20.5c1.4,-0.3 2.4,-1.2 2.4,-2.2c0,-1.3 -1.6,-2.4 -3.6,-2.4c-2,0 -3.6,1.1 -3.6,2.4c0,1 0.9,1.8 2.2,2.2l0,19.7l-6.4,48.1l-8.2,0l-5.4,-35.6l10,-13.3l0,-24.8l-7.9,-51.9l0,-22.6c1.1,-0.4 2,-1.5 2,-2.8c0,-1.6 -1.2,-2.9 -2.7,-2.9c-1.5,0 -2.7,1.3 -2.7,2.9c0,1.2 0.7,2.3 1.7,2.7l0,22.5l-7.9,46l-20.7,-124.8l0,-45.6c2.1,-0.5 3.6,-1.9 3.6,-3.6c0,-2.1 -2.3,-3.8 -5,-3.8c-2.7,0 -5,1.7 -5,3.8c0,1.7 1.5,3.2 3.6,3.6l0,45.7l-17.9,124.6l-7.9,-45.8l-0.7,-21.8c1.5,-0.3 2.7,-1.7 2.7,-3.3c0,-1.9 -1.6,-3.4 -3.5,-3.4c-1.9,0 -3.5,1.5 -3.5,3.4c0,1.7 1.3,3.1 3,3.3l0,21.5l-6.9,51.9l0.3,23.8l10.2,13.6l-3.8,36.3l-8.4,0.8l-7.2,-47.3l0,-21c1.1,-0.5 1.9,-1.4 1.9,-2.5c0,-1.6 -1.6,-2.8 -3.5,-2.8c-1.9,0 -3.5,1.3 -3.5,2.8c0,1.2 0.9,2.2 2.2,2.6l0,20.6c0,0 -7.7,54.5 -6.4,54.2l-1.5,26.9l-6.1,0l-0.3,4.1l6.1,0l1,4.3l10.2,17.4l0,113.1l-5.4,-7.9l0,-49.9l-2,-8.2c-0.3,-1.1 -1.8,-1.1 -2,0l-1.6,6.4l0,32.5l-4.9,-9.7l0,-43.5l-2.1,-7.6c-0.3,-1 -1.7,-1 -2,0l-2,6.6l0,28.9l-5.9,-11.5l0,-37.6l-1.8,-7.3c-0.3,-1.1 -1.8,-1.1 -2,0l-1.3,5l-1.3,23.5l-4.1,-11.5l-0.3,-28.1l-1.6,-6.5c-0.3,-1.1 -1.7,-1.1 -2,0l-1.3,4.7l0.3,14.6l-4.1,-4.9l-1.2,-26.1c0,-0.8 0.6,-1.6 1.4,-1.6l1.1,-0.1c0.9,-0.1 1.7,0.7 1.6,1.6l-0.3,3.8c-0.1,0.9 0.6,1.6 1.5,1.6l0.7,0c0.8,0 1.5,-0.7 1.5,-1.5l0,-4.6c0,-0.8 0.7,-1.5 1.5,-1.5l3.6,0c0.8,0 1.5,-0.7 1.5,-1.5l0,-0.1c0,-0.9 -0.8,-1.6 -1.6,-1.5l-4.1,0.3c-0.9,0.1 -1.6,-0.6 -1.6,-1.5l0,-2.9c0,-0.9 -0.9,-1.7 -1.8,-1.5c-0.7,0.1 -1.3,0.8 -1.3,1.5l0,2.7c0,0.9 -0.7,1.6 -1.6,1.5l-1,-0.1c-0.8,-0.1 -1.4,-0.7 -1.4,-1.5l0,-9.9c0,-0.8 -0.6,-1.5 -1.4,-1.5l-1.3,-0.1c-0.9,-0.1 -1.6,0.6 -1.6,1.5l0,9.8c0,0.9 -0.7,1.6 -1.6,1.5l-2,-0.1c-0.8,0 -1.5,-0.7 -1.5,-1.5l0,-2.5c0,-0.8 -0.6,-1.5 -1.4,-1.5c-0.9,-0.1 -1.7,0.6 -1.7,1.5l0,2.2c0,0.8 -0.7,1.5 -1.5,1.5l-3.5,0c-0.9,0 -1.6,0.7 -1.5,1.6l0.1,1.7c0,0.8 0.8,1.5 1.6,1.5l3.6,-0.1c0.8,0 1.6,0.6 1.6,1.5l0.1,2.8c0,0.8 0.6,1.4 1.4,1.5l0.1,0c0.9,0.1 1.6,-0.6 1.7,-1.5l0.1,-2.6c0,-0.9 0.8,-1.6 1.7,-1.5l1.3,0.2c0.8,0.1 1.4,0.8 1.4,1.6l-1.2,25.9l-4.6,5.6l0,-13.8l-1.3,-5.5c-0.3,-1.1 -1.8,-1.1 -2,0l-1.8,7.3l0,28.4l-5.6,9.5l0,-18.6l-1.8,-8.1c-0.3,-1.1 -1.9,-1.1 -2.1,0.1l-1,8.5l0,33.3l-6.9,12.3l0,-28.1l-1.7,-8.2c-0.2,-1.1 -1.9,-1.1 -2.1,0l-1.4,8.7l0,41.7l-6.1,13.3l-1,-31.2l-1.8,-8.3c-0.2,-1.1 -1.8,-1.1 -2,0l-1.6,8l0.3,44.3l-3.6,7.9l-1,-108.5l9.5,-17.6l5.4,0l0,-4.3l-4.9,0.3l0,-25.6l-9,-56.8l0,-20.1c1.3,-0.3 2.2,-1.1 2.2,-2.1c0,-1.2 -1.6,-2.2 -3.5,-2.2c-1.9,0 -3.5,1 -3.5,2.2c0,1 1,1.8 2.3,2.1l0,19.8l-5.9,49.1l-7.9,0.3l-4.6,-34l8.7,-15.6l0,-26.9l-4.3,-50.4l0,-20.7c1.1,-0.3 1.9,-1.3 1.9,-2.6c0,-1.5 -1.1,-2.7 -2.6,-2.7c-1.5,0 -2.6,1.2 -2.6,2.7c0,1.1 0.7,2.1 1.6,2.5l-1,20.3l-8.4,46l-18.7,-122.8l0,-49.3c2.1,-0.5 3.7,-2.2 3.7,-4.1c0,-2.4 -2.4,-4.3 -5.3,-4.3c-2.9,0 -5.3,1.9 -5.3,4.3c0,2 1.7,3.7 4.1,4.2l0,48.5l-15.3,124.8l-8.7,-47.1l-0.3,-19.2c0.8,-0.5 1.3,-1.4 1.3,-2.4c0,-1.6 -1.2,-2.9 -2.7,-2.9c-1.5,0 -2.7,1.3 -2.7,2.9c0,1.4 0.9,2.5 2,2.8l0,18.9l-4.6,49.4l0.3,28.6l8.7,14.6l-4.9,34.8l-7.4,0l-4.6,-45.8l0,-25.3c0.2,-0.3 0.3,-0.6 0.3,-1c0,-1.1 -0.9,-2 -1.9,-2c-1.1,0 -1.9,0.9 -1.9,2c0,0.7 0.3,1.3 0.8,1.6l0,22.9l-2,0.3l0,-25.1c-0.1,-1 -0.9,-1.8 -1.8,-1.8c-1,0 -1.8,0.9 -1.8,2c0,0.9 0.5,1.7 1.3,1.9l-0.2,23.9l-7.8,53.2l0,29.1l-4,0l0,3.6l4,0l9.3,14.1l1,122.5l-5.4,0l0.3,13l5.1,7.2l-16.9,25.3l0,62.2l-3.8,0l0,75.2l343.8,0l0,-144.3l-23,-24.3Zm-291.1,-170.2l0,-11.9l7.3,0l-7.3,11.9Zm72.9,0l-5.4,-11.9l5.4,0l0,11.9Zm123.6,-4.2l-1.9,-10.7l5.8,0l-3.9,10.7Zm75.2,0l-5.4,-10.7l6.9,0l-1.5,10.7Z" style="fill:#d2d0a9;fill-rule:nonzero;"/><path d="M69.5,605.5l26.2,0c0,0 32.1,-30.6 54.6,-32.1l4.4,-13.1l13.1,0l0,17.5c0,0 8,-2.2 9.5,5.1l34.2,0l0,-22.6l18.9,3.6l0,13.1l27.7,-1.5c0,0 3.6,13.1 23.3,11.7l0,-45.9l21.1,-79.4l21.9,80.1l8.7,-1.5l0,-24.8l12.4,-34.2l8.7,29.1l19.7,-54.6l13.1,53.2l6.6,0.7l5.8,-24l5.1,38.6l36.4,-2.2l7.3,-52.4l7.3,51c0,0 12.4,-2.2 13.1,19.7l0,20.4l43.7,0.7l38.6,-31l29.9,0l16,-22.9l22.6,-2.9l22.6,-18.9l51,0l21.1,62.6l41.3,-0.7l0,16l24.2,-1.5l0,-63.4l13.8,-28.4l16,25.5l0,68.5l18.9,0l0,30.6l24,-0.7l0,-42.2l9.5,-35.7l9.5,36.4l0,45.2l63.4,-0.7c0,0 3.6,-32.1 24,-32.1c20.4,0 21.1,13.8 21.1,13.8l101.2,0l0,-28.4l21.1,-2.2l0,-92.5c0,0 1.5,-8.7 8,-9.5l3.6,-29.9l6.6,35l10.2,-43l45.9,0l10.9,43.7l10.2,-34.2l5.1,33.5l18.2,0.7l0,37.1l7.3,-31.3l6.6,30.6l10.9,-0.7l0,23.3l61.9,9.5l0,-18.9l21.9,0l0,23.3l57.5,0l0,-38.6l15.3,-1.5l0,-18.9l16.8,-2.2l6.6,-35.7l6.6,37.9l10.9,0.7l0,231.3l-1373.6,-4l0,-88.8Z" style="fill:#a0a284;fill-rule:nonzero;"/><g><path d="M869.2,794.6l201,0l-0.8,-124.7l-0.3,-143.2l8.3,-13.9l3.6,0l0,-4.6l-2.8,0l0,-29.4l2.8,0.3l0,-4.1l-2.8,-0.5l-9,-60.1l0,-20.7c1.3,-0.5 2.2,-1.8 2.2,-3.3c0,-2 -1.5,-3.5 -3.3,-3.5c-1.8,0 -3.3,1.6 -3.3,3.5c0,1.6 1,2.9 2.3,3.4l0,20.6l-6.5,45.2l-7.5,-47.7l0,-16.8c0.7,-0.5 1.2,-1.5 1.2,-2.7c0,-1.7 -1.1,-3.1 -2.4,-3.1c-1.3,0 -2.4,1.4 -2.4,3.1c0,1.4 0.7,2.6 1.7,3l0,16.4l-3.1,16.5l-9.5,-37.2l-1,-14.2l3.6,-0.3l0,-6.2l-5.4,0l-10.8,-41l0,-14.1c1.8,-0.3 3.2,-1.2 3.2,-2.3c0,-1.1 -1.3,-2 -3.2,-2.3l0,-18.6c1.5,-0.4 2.6,-1.4 2.6,-2.7c0,-1.6 -1.7,-2.9 -3.7,-2.9c-2,0 -3.7,1.3 -3.7,2.9c0,1.2 0.9,2.2 2.2,2.6l0,18.7c-1.8,0.3 -3.2,1.2 -3.2,2.3c0,1.1 1.3,2 3.2,2.3l0,13.3l-26.1,0l0,-13.9c1.8,-0.2 3.2,-1.3 3.2,-2.6c0,-1.3 -1.4,-2.4 -3.2,-2.6l0,-16.9c1.2,-0.4 2.1,-1.7 2.1,-3.1c0,-1.8 -1.4,-3.3 -3,-3.3c-1.6,0 -3,1.5 -3,3.3c0,1.4 0.8,2.5 1.9,3l0,17.1c-1.4,0.4 -2.5,1.4 -2.5,2.5c0,1.1 1,2.1 2.5,2.5l0,15.5l-9.5,41l-6.5,-0.3l0,6.2l2.6,0.3l0,14.4c0,0 -10.1,39.2 -10.1,38.7c0,-0.5 -3.1,-18.3 -3.1,-18.3l0,-19.4c1.1,-0.4 1.9,-1.4 1.9,-2.7c0,-1.6 -1.3,-2.9 -2.9,-2.9c-1.6,0 -2.9,1.3 -2.9,2.9c0,1.3 0.9,2.4 2.1,2.7l0,19.1l-6.5,40l-6.2,-38.7l0,-16c1.2,-0.3 2.1,-1.3 2.1,-2.5c0,-1.4 -1.3,-2.6 -2.8,-2.6c-1.5,0 -2.8,1.2 -2.8,2.6c0,1.2 0.8,2.1 1.9,2.5l0,16l-9,57.5l0,-18.6l0,-1.5c1.3,-0.5 2.2,-1.4 2.2,-2.5c0,-1.1 -0.9,-2 -2.2,-2.5l0,-35.9c1.5,-0.2 2.6,-0.9 2.6,-1.8c0,-0.9 -1.1,-1.7 -2.6,-1.8l0,-2.9l-1.5,0l-0.1,3c-1.3,0.2 -2.3,0.9 -2.3,1.8c0,0.8 0.9,1.5 2.2,1.8l-0.9,35.6c-2.1,0.2 -3.7,1.4 -3.7,2.9c0,1.4 1.5,2.6 3.6,2.9l0,1.1l-3.9,48.5c0,0 -2.8,-1 -3.6,1.8c-0.8,2.8 4.9,8.8 4.9,8.8l0,4.9c0,0 -12.9,6.2 -13.7,11.4c-0.8,5.2 3.1,10.6 3.1,10.6c-3.9,-0.5 -7.7,2.3 -7.7,2.3l-1.3,-29.6c2.2,-0.7 3.9,-2.7 3.9,-5.1c0,-2.6 -1.9,-4.8 -4.4,-5.3l-1.6,-28.7c1.1,-0.2 2,-1.3 2,-2.7c0,-1.5 -1,-2.7 -2.3,-2.8l-0.1,-2.4l0,2.4c-1.3,0 -2.3,1.3 -2.3,2.8c0,1.5 1,2.7 2.3,2.8l0,28.7c-2.5,0.5 -4.3,2.7 -4.3,5.2c0,2.6 1.8,4.7 4.3,5.2l-1.5,42.4l-6.2,8l6.2,7.5l0,8l-4.1,3.9c0,0 -9.5,1.8 -11.1,11.4c-1.5,9.5 3.4,15.2 3.4,15.2l-5.7,8l-26.8,-25.3l0,204.5l-0.2,0Z" style="fill:#5f7f77;fill-rule:nonzero;"/><path d="M1460.5,766.9l0.6,-109.7l5.1,0l0,-2.2c0,0 4.2,0.3 3.8,-3.3c-0.4,-3.6 -4.7,-2.1 -4.7,-2.1c0,0 -17.7,-16.5 -19.3,-45.7l-26.7,0c0,0 -7.4,38.3 -19.9,44.9c0,0 -4.9,-0.1 -4.9,3.3c0,3.4 2.5,2.8 2.5,2.8l0.3,1.8l4.9,0.3l0.3,23.5l-15.3,0l0,-63.8l2.5,0.1l-0.3,-2.5l1.8,-0.1l-0.1,-2.6l-17.9,0l0,-10.4l4,0l0,-2.2l1.7,0l-0.1,-2.9l-18.1,0l0,-9.1l3.6,0l-0.1,-3.5c0,0 1.9,0.3 1.9,-1.5c0,-1.8 -2.1,-1.1 -2.1,-1.1l-12.5,-0.1l0,-1.3c0,0 2.9,0.4 2.5,-2.8c0,0 -0.3,-1.7 -1.8,-1.4l0,-3.3l1.3,0l0.1,-2.9l1.7,0l-0.3,-2.9l-18.6,0l0,2.8l1.7,0.1l0.1,2.6l1.7,-0.1l0.1,9.6l-13.9,0.1l0,2.1l1.7,0l0.3,2.8l3.5,0l0,9.7l-18.1,-0.3l0,2.8l1.4,0.1l0,2.4l4.2,0.3l-0.1,10.4l-18.3,0.1l0,1.9l1.8,0.1l0.1,3.1l2.1,-0.1l0.6,37.6c0,0 -1,-19.3 -10.4,-20.4l-42.2,-0.1c0,0 -7.2,-0.8 -9.9,24.4l0,-22.6l4,-0.1l0,-39.6c0,0 2.5,0.1 2.2,-1.5c-0.3,-1.7 -1.9,-1.9 -1.9,-1.9l-0.4,-4.4l1.4,0.1c0,0 -0.3,-3.5 -3.5,-3.5c-3.2,0 -3.1,3.2 -3.1,3.2l1.1,0.1l0.1,4.2l-2.8,0.1l0,-19.7c0,0 3.3,1 3.3,-1.4c0,-2.4 -3.3,-2.4 -3.3,-2.4l0,-6.3l1.8,0c0,0 0.3,-3.3 -2.6,-3.2c-2.9,0.1 -2.6,2.6 -2.6,2.6l1.3,0.3l0.1,6.5l-6.5,0.1l-2.8,-29.6l1.1,0c0,0 -0.6,-3.3 -2.4,-3.3l0,-12.9l-1.3,0l0,12.9c0,0 -2.6,0.8 -2.9,3.1l1.3,0.3l-3.8,29.6l-5.8,0.3l0,-6.5l1.1,0c0,0 0.8,-2.8 -2.2,-3.3c-3,-0.5 -2.4,3.1 -2.4,3.1l1.3,0.3l0,6.3c0,0 -3.1,-0.6 -3.3,2.5c0,0 0.7,1.3 3.2,1.4l-0.1,19.2l-3.1,0.3l0,-3.6l1.7,-0.3c0,0 0.6,-3.5 -4.2,-4.2c0,0 -2.5,0.7 -2.9,4l1.7,0.1l0,3.8c0,0 -1.8,0.7 -1.7,2.1c0.1,1.4 1.5,2.5 1.5,2.5l-0.1,38.5l3.8,0.3l0,23.5c0,0 -4,-0.1 -3.9,2.1c0.1,2.2 3.8,1.7 3.8,1.7l0.3,21.7l-22.4,-0.1l0,-25.4c0,0 1.9,1.1 1.8,-4.2c-0.1,-5.3 -0.4,-31.9 -0.4,-31.9c0,0 0.6,-2.8 -3.9,-2.8c-4.4,0 -57.5,0.1 -57.5,0.1c0,0 -3.3,0.3 -3.5,4.4c-0.1,4.2 0,23.3 0,23.3l-28.9,-26.1l-17.5,15.8l0,-9.2c0,0 2.5,0.8 2.6,-0.8c0.1,-1.6 -2.6,-1.9 -2.6,-1.9l-6,0c0,0 -2.5,2.4 0,2.9c2.5,0.6 1.3,0 1.3,0l0.1,12.6l-16.3,15.3c0,0 0.7,3.6 3.2,2.1l4.2,0.6l0,107.9l397,0l0,-0.4Z" style="fill:#5f7f77;fill-rule:nonzero;"/><path d="M835.2,763.5l0.6,-109.7l5.1,0l0,-2.2c0,0 4.2,0.3 3.8,-3.3c-0.4,-3.6 -4.7,-2.1 -4.7,-2.1c0,0 -17.7,-16.5 -19.3,-45.7l-26.7,0c0,0 -7.4,38.3 -19.9,44.9c0,0 -4.9,-0.1 -4.9,3.3c0,3.5 2.5,2.8 2.5,2.8l0.3,1.8l4.9,0.3l0.3,23.5l-15.3,0l0,-63.8l2.5,0.1l-0.3,-2.5l1.8,-0.1l-0.1,-2.6l-17.9,0l0,-10.4l4,0l0,-2.2l1.7,0l-0.1,-2.9l-18.1,0l0,-8.9l3.6,0l-0.1,-3.5c0,0 1.9,0.3 1.9,-1.5c0,-1.8 -2.1,-1.1 -2.1,-1.1l-12.5,-0.1l0,-1.3c0,0 2.9,0.4 2.5,-2.8c0,0 -0.3,-1.7 -1.8,-1.4l0,-3.3l1.3,0l0.1,-2.9l1.7,0l-0.3,-2.9l-18.7,0l0,2.8l1.7,0.1l0.1,2.6l1.7,-0.1l0.1,9.6l-13.9,0.1l0,2.1l1.7,0l0.3,2.8l3.5,0l0,9.7l-18.1,-0.3l0,2.8l1.4,0.1l0,2.4l4.2,0.3l-0.1,10.4l-18.3,0.1l0,1.9l1.8,0.1l0.1,3.1l2.1,-0.1l0.6,37.6c0,0 -1,-19.3 -10.4,-20.4l-42.2,-0.1c0,0 -7.2,-0.8 -9.9,24.4l0,-22.6l4,-0.1l0,-39.6c0,0 2.5,0.1 2.2,-1.5c-0.3,-1.7 -1.9,-1.9 -1.9,-1.9l-0.4,-4.4l1.4,0.1c0,0 -0.3,-3.5 -3.5,-3.5c-3.2,0 -3.1,3.2 -3.1,3.2l1.1,0.1l0.1,4.2l-2.8,0.1l0,-19.7c0,0 3.3,1 3.3,-1.4c0,-2.4 -3.3,-2.4 -3.3,-2.4l0,-6.3l1.8,0c0,0 0.3,-3.3 -2.6,-3.2c-2.9,0.1 -2.6,2.6 -2.6,2.6l1.3,0.3l0.1,6.5l-6.5,0.1l-2.8,-29.6l1.1,0c0,0 -0.6,-3.3 -2.4,-3.3l0,-13.1l-1.3,0l0,12.9c0,0 -2.6,0.8 -2.9,3.1l1.3,0.3l-3.8,29.6l-5.8,0.3l0,-6.5l1.1,0c0,0 0.8,-2.8 -2.2,-3.3c-3.1,-0.6 -2.4,3.1 -2.4,3.1l1.3,0.3l0,6.3c0,0 -3.1,-0.6 -3.3,2.5c0,0 0.7,1.3 3.2,1.4l-0.1,19.2l-3.1,0.3l0,-3.6l1.7,-0.3c0,0 0.6,-3.5 -4.2,-4.2c0,0 -2.5,0.7 -2.9,4l1.7,0.1l0,3.8c0,0 -1.8,0.7 -1.7,2.1c0.1,1.4 1.5,2.5 1.5,2.5l-0.1,38.5l3.8,0.3l0,23.5c0,0 -4,-0.1 -3.9,2.1c0.1,2.2 3.8,1.7 3.8,1.7l0.3,21.7l-22.4,-0.1l0,-25.4c0,0 1.9,1.1 1.8,-4.2c-0.1,-5.3 -0.4,-31.9 -0.4,-31.9c0,0 0.6,-2.8 -3.9,-2.8c-4.5,0 -57.5,0.1 -57.5,0.1c0,0 -3.3,0.3 -3.5,4.4c-0.1,4.2 0,23.3 0,23.3l-28.9,-26.1l-17.5,15.8l0,-9.2c0,0 2.5,0.8 2.6,-0.8c0.1,-1.7 -2.6,-1.9 -2.6,-1.9l-6,0c0,0 -2.5,2.4 0,2.9c2.5,0.6 1.3,0 1.3,0l0.1,12.6l-16.4,15c0,0 0.7,3.6 3.2,2.1l4.2,0.6l0,107.9l397.2,0l0,-0.1Z" style="fill:#5f7f77;fill-rule:nonzero;"/><path d="M447.4,763.5l0.6,-109.7l5.1,0l0,-2.2c0,0 4.2,0.3 3.8,-3.3c-0.4,-3.6 -4.7,-2.1 -4.7,-2.1c0,0 -17.7,-16.5 -19.3,-45.7l-26.7,0c0,0 -7.4,38.3 -19.9,44.9c0,0 -4.9,-0.1 -4.9,3.3c0,3.5 2.5,2.8 2.5,2.8l0.3,1.8l4.9,0.3l0.3,23.5l-15.3,0l0,-63.8l2.5,0.1l-0.3,-2.5l1.8,-0.1l-0.1,-2.6l-17.9,0l0,-10.4l4,0l0,-2.2l1.7,0l-0.1,-2.9l-18.1,0l0,-8.9l3.6,0l-0.1,-3.5c0,0 1.9,0.3 1.9,-1.5c0,-1.8 -2.1,-1.1 -2.1,-1.1l-12.5,-0.1l0,-1.3c0,0 2.9,0.4 2.5,-2.8c0,0 -0.3,-1.7 -1.8,-1.4l0,-3.3l1.3,0l0.1,-2.9l1.7,0l-0.3,-2.9l-18.6,0l0,2.8l1.7,0.1l0.1,2.6l1.7,-0.1l0.1,9.6l-13.9,0l0,2.1l1.7,0l0.3,2.8l3.5,0l0,9.7l-18.1,-0.3l0,2.8l1.4,0.1l0,2.4l4.2,0.3l-0.1,10.4l-18.3,0.1l0,1.9l1.8,0.1l0.1,3.1l2.1,-0.1l0.4,37.6c0,0 -1,-19.3 -10.4,-20.4l-42.2,-0.1c0,0 -7.2,-0.8 -9.9,24.4l0,-22.6l4,-0.1l0,-39.6c0,0 2.5,0.1 2.2,-1.5c-0.3,-1.7 -1.9,-1.9 -1.9,-1.9l-0.4,-4.4l1.4,0.1c0,0 -0.3,-3.5 -3.5,-3.5c-3.2,0 -3.1,3.2 -3.1,3.2l1.1,0.1l0.1,4.2l-2.8,0.1l0,-19.7c0,0 3.3,1 3.3,-1.4c0,-2.4 -3.3,-2.4 -3.3,-2.4l0,-6.3l1.8,0c0,0 0.3,-3.3 -2.6,-3.2c-2.9,0.1 -2.6,2.6 -2.6,2.6l1.3,0.3l0.1,6.5l-6.5,0.1l-2.8,-29.6l1.1,0c0,0 -0.6,-3.3 -2.4,-3.3l0,-13.1l-1.3,0l0,12.9c0,0 -2.6,0.8 -2.9,3.1l1.3,0.3l-3.8,29.6l-5.8,0.3l0,-6.5l1.1,0c0,0 0.8,-2.8 -2.2,-3.3c-3.1,-0.6 -2.4,3.1 -2.4,3.1l1.3,0.3l0,6.3c0,0 -3.1,-0.6 -3.3,2.5c0,0 0.7,1.3 3.2,1.4l-0.1,19.2l-3.1,0.3l0,-3.6l1.7,-0.3c0,0 0.6,-3.5 -4.2,-4.2c0,0 -2.5,0.7 -2.9,4l1.7,0.1l0,3.8c0,0 -1.8,0.7 -1.7,2.1c0.1,1.4 1.5,2.5 1.5,2.5l-0.1,38.5l3.8,0.3l0,23.5c0,0 -4,-0.1 -3.9,2.1c0.1,2.2 3.8,1.7 3.8,1.7l0.3,21.7l-22.4,-0.1l0,-25.4c0,0 1.9,1.1 1.8,-4.2c-0.1,-5.3 -0.4,-31.9 -0.4,-31.9c0,0 0.6,-2.8 -3.9,-2.8c-4.5,0 -57.5,0.1 -57.5,0.1c0,0 -3.3,0.3 -3.5,4.4c-0.1,4.2 0,23.3 0,23.3l-28.9,-26.1l-17.5,15.8l0,-9.2c0,0 2.5,0.8 2.6,-0.8c0.1,-1.7 -2.6,-1.9 -2.6,-1.9l-6,0c0,0 -2.5,2.4 0,2.9c2.5,0.5 1.3,0 1.3,0l0.1,12.6l-16.3,15.1c0,0 0.7,3.6 3.2,2.1l4.2,0.6l0,107.9l397.2,0l0,-0.1Z" style="fill:#5f7f77;fill-rule:nonzero;"/></g><g><path d="M407.1,795.5l0,-57.5l-8.1,-4l98.7,-103.6l4.9,-81.7l0,81.7l104.4,105.2l-6.5,4.8l0.8,93.1l-195,-5.7l0.8,-32.3Z" style="fill:#2a4b4c;fill-rule:nonzero;"/><path d="M813,689.9l-7.3,0l3.7,-12.8l-10.1,0l30.2,-23.8c0,0 -11,-9.1 -9.1,-19.2c1.9,-10.1 29.3,-20.1 29.3,-20.1l5.5,-12.8l-6.4,-7.3l6.4,-4.6l0,-32.9l-10.2,-13.8l10.1,-7.3c0,0 -5.5,-6.4 0,-14.6c5.5,-8.2 13.7,-14.6 13.7,-14.6l-5.5,-12.8l8.2,-60.1l0,-57l2.7,0l0,57.6l1.2,22.9l5.6,38.3l-3.4,12.2c0,0 16.2,11.9 14.3,20.7c-1.8,8.8 -3.7,8.5 -3.7,8.5l11.6,7.3l-7.9,11.6l0,32.9l5.8,5.5l-7,6.7l6.7,13.1c0,0 26.5,6.7 26.2,21.3c-0.3,14.6 -12.2,17.1 -12.2,17.1l31.4,23.2l-11,2.1l4.3,13.1l-6.4,0l3,82.9l13.4,15.2l0,44.8l-133.7,-1.2l0.6,-142.1Z" style="fill:#2a4b4c;fill-rule:nonzero;"/><path d="M909,833.5l0,-39.4c0,0 3.9,-1.6 1.8,-4.4c-2.1,-2.8 -38.5,-33.7 -38.5,-33.7c0,0 -1.6,-3.4 -4.2,0c-2.6,3.4 -35.7,32.6 -35.7,32.6l-12.3,-11.5l0,-33.4l4.4,0l0,-6c0,0 2.1,0.5 2.2,-1.6c0.1,-2.1 -2.5,-0.9 -2.5,-0.9l-0.3,-4.4l1.6,0c0,0 0.3,-3.3 -3.4,-3.5c-3.7,-0.3 -5.2,0 -5.2,0l-4.7,-12.5c0,0 2.9,-2 2.1,-5.3c-0.8,-3.3 -5.3,-2.7 -5.3,-2.7l-114.9,-0.3l0,-20.6l1.6,0l0,-2.3c0,0 2,0.5 2,-2.2c0,-2.7 -2.5,-2.1 -2.5,-2.1l-5.1,-0.1l0,-21.7c0,0 1.8,0.4 2.2,-2.2c0.4,-2.6 -2.9,-2.3 -2.9,-2.3l0,-7l2.6,0l0,-1.8l-2.6,0l0,-11.1l1.4,0c0,0 0.4,-12.3 -13.2,-13.3l0,-3.4l1.3,0l0.1,-2.5l-1.4,0l0,-2.3l-5.2,-3.4l0,-14.3l-1.4,0l0,14.5l-5.7,3.7l0,1.8l-1.3,0.1l0,2.1l1.8,0l0,3.4c0,0 -13.4,0.8 -13.2,15.5c0,0 -0.3,2.2 0.5,2.2l0,6.6l-2.2,0.1l0,2.5l2.2,0.1l0,6.3c0,0 -2.1,-0.3 -2.2,2.5c-0.1,2.7 2,2 2,2l-0.1,21.9l-5.3,0.1c0,0 -2.1,0.4 -2,2.5c0.1,2.1 2.2,1.7 2.2,1.7l0.3,2.2l1.2,0.3l-0.1,11.9l-1.7,3.5l1.8,0.1l0,18l-13.6,-0.3l0,-6.9l-4.4,-0.4l0,7.8l-13,-0.3l-17.2,19.4l-21.3,0.1l-32.1,32.7c0,0 -1,2.1 0,3.5c1,1.4 2.9,0.1 2.9,0.1l1.4,1.6l2,-0.1l-0.8,56.7l355.9,0l0,0.1Z" style="fill:#2a4b4c;fill-rule:nonzero;"/><path d="M250.1,833.5l0,-39.4c0,0 3.9,-1.6 1.8,-4.4c-2.1,-2.8 -38.5,-33.7 -38.5,-33.7c0,0 -1.6,-3.4 -4.2,0c-2.6,3.4 -35.7,-0.8 -35.7,-0.8l-12.3,-11.5l4.4,0l0,-6c0,0 2.1,0.5 2.2,-1.6c0.1,-2.1 -2.5,-0.9 -2.5,-0.9l-0.3,-4.4l1.6,0c0,0 0.3,-3.3 -3.4,-3.5c-3.7,-0.3 -5.2,0 -5.2,0l-4.7,-12.5c0,0 2.9,-2 2.1,-5.3c-0.8,-3.3 -5.3,-2.7 -5.3,-2.7l-114.9,-0.3l0,-20.6l1.6,0l0,-2.3c0,0 2,0.5 2,-2.2c0,-2.7 -2.5,-2.1 -2.5,-2.1l-5.1,-0.1l0,-21.7c0,0 1.8,0.4 2.2,-2.2c0.4,-2.6 -2.9,-2.3 -2.9,-2.3l0,-7l2.6,0l0,-1.8l-2.6,0l0,-11.1l1.5,0c0,0 0.4,-12.3 -13.2,-13.3l0,-3.4l1.3,0l0.1,-2.5l-1.4,0l0,-2.3l-5.2,-3.4l0,-14.3l-1.6,0l0,14.5l-5.7,3.6l0,1.8l-1.3,0.1l0,2.1l1.8,0l0,3.4c0,0 -13.4,0.8 -13.2,15.5c0,0 -0.3,2.2 0.5,2.2l0,6.6l-2.2,0.1l0,2.5l2.2,0.1l0,6.3c0,0 -2.1,-0.3 -2.2,2.5c-0.1,2.7 2,2 2,2l-0.1,21.9l-5.3,0.1c0,0 -2.1,0.4 -2,2.5c0.1,2.1 2.2,1.7 2.2,1.7l0.3,2.2l1.2,0.3l-0.1,11.9l-1.7,3.5l1.8,0.1l0,18l-13.6,-0.3l0,-6.9l-4.4,-0.4l0,7.8l-13,-0.3l-17.2,19.5l-21.3,0.1l-32.1,32.7c0,0 -1,2.1 0,3.5c1,1.4 2.9,0.1 2.9,0.1l1.4,1.6l2,-0.1l-0.8,56.7l356,0l0,0.1Z" style="fill:#2a4b4c;fill-rule:nonzero;"/><path d="M917.5,833.5l0,-39.4c0,0 -3.9,-1.6 -1.8,-4.4c2.1,-2.9 38.6,-33.6 38.6,-33.6c0,0 1.6,-3.4 4.2,0c2.6,3.4 35.7,32.6 35.7,32.6l12.3,-11.5l0,-33.4l-4.4,0l0,-6c0,0 -2.1,0.5 -2.2,-1.6c-0.1,-2.1 2.5,-0.9 2.5,-0.9l0.3,-4.4l-1.6,0c0,0 -0.3,-3.3 3.4,-3.5c3.7,-0.3 5.2,0 5.2,0l4.7,-12.5c0,0 -2.9,-2 -2.1,-5.3c0.8,-3.3 5.3,-2.7 5.3,-2.7l114.9,-0.3l0,-20.6l-1.6,0l0,-2.3c0,0 -2,0.5 -2,-2.2c0,-2.7 2.5,-2.1 2.5,-2.1l5.1,-0.1l0,-21.7c0,0 -1.8,0.4 -2.2,-2.2c-0.4,-2.6 2.9,-2.3 2.9,-2.3l0,-7.1l-2.6,0l0,-1.8l2.6,0l0,-11.1l-1.4,0c0,0 -0.4,-12.3 13.2,-13.3l0,-3.4l-1.3,0l-0.1,-2.5l1.4,0l0,-2.3l5.2,-3.4l0,-14.3l1.6,0l0,14.5l5.7,3.7l0,1.8l1.3,0.1l0,2.1l-1.8,0l0,3.4c0,0 13.4,0.8 13.2,15.5c0,0 0.3,2.2 -0.5,2.2l0,6.6l2.2,0.1l0,2.5l-2.2,0.1l0,6.3c0,0 2.1,-0.3 2.2,2.5c0.1,2.7 -2,2 -2,2l0.1,21.9l5.3,0.1c0,0 2.1,0.4 2,2.5c-0.1,2.1 -2.2,1.7 -2.2,1.7l-0.3,2.2l-1.2,0.3l0.1,11.9l1.7,3.5l-1.8,0.1l0,18l13.6,-0.3l0,-6.9l4.4,-0.4l0,7.8l13,-0.3l17.1,19.4l21.3,0.1l32.1,32.7c0,0 1,2.1 0,3.5c-1,1.4 -2.9,0.1 -2.9,0.1l-1.4,1.6l-2,-0.1l0.8,56.7l-356.1,0l0,0.1Z" style="fill:#2a4b4c;fill-rule:nonzero;"/></g><path d="M1440.7,548.3l12.1,-5.5l-11.3,-78.8c2.2,-0.5 3.9,-2.6 3.9,-5.2c0,-2.3 -1.4,-4.3 -3.3,-5c-0.3,-10.9 -1.6,-41.1 -1.6,-41.1l-2.1,41.4c-1.6,0.9 -2.7,2.7 -2.7,4.8c0,2.5 1.6,4.6 3.7,5.1l-14.1,64.6l-61.5,-168.1l-1,0.2l0,-36.4c1.9,-0.7 3.2,-2.7 3.2,-5c0,-2.3 -1.4,-4.3 -3.3,-5c-0.3,-10.9 -1.6,-41.1 -1.6,-41.1l-2.1,41.4c-1.6,0.9 -2.7,2.7 -2.7,4.8c0,2 1,3.8 2.6,4.7l0,37.6l-22.9,5.1l0,-42.5c1.7,-0.8 2.9,-2.7 2.9,-4.9c0,-2.3 -1.4,-4.3 -3.3,-5c-0.3,-10.9 -1.6,-41.1 -1.6,-41.1l-2.1,41.4c-1.6,0.9 -2.7,2.7 -2.7,4.8c0,2.2 1.2,4 2.9,4.9l0,48.4l-55.2,156l-11,-50.5l-12.1,64.8l9.9,9.9l-1.1,257.1l-158.2,-2.2l0,-4.1l-8.5,-51.1l-9.3,51.9l0,4.7l-135.1,0l0,-4.7l-9.6,-54.9l-8.2,54.9l0,5.5l-145.6,-1.4l0,-4.7l-8.8,-51.4l-9.6,51.9l0,5.5l-47.3,-0.4l0,-0.6l-22.9,0.2l-22.9,-0.2l0,0.4l-47.3,0.4l0,-5.5l-9.6,-51.9l-8.8,51.4l0,4.7l-145.6,1.4l0,-5.5l-8.2,-54.9l-9.6,54.9l0,4.7l-135.1,0l0,-4.7l-9.3,-51.9l-8.5,51.1l0,4.1l-158.2,2.2l-1.1,-257.1l9.9,-9.9l-12.2,-64.9l-11,50.5l-55.2,-156l0,-48.4c1.7,-0.8 2.9,-2.7 2.9,-4.9c0,-2.1 -1.1,-3.9 -2.7,-4.8l-2.1,-41.4c0,0 -1.3,30.2 -1.6,41.1c-1.9,0.7 -3.3,2.7 -3.3,5c0,2.2 1.2,4 2.9,4.9l0,42.5l-22.9,-5.1l0,-37.6c1.5,-0.9 2.6,-2.6 2.6,-4.7c0,-2.1 -1.1,-3.9 -2.7,-4.8l-2.1,-41.4c0,0 -1.3,30.2 -1.6,41.1c-1.9,0.7 -3.3,2.7 -3.3,5c0,2.3 1.4,4.3 3.2,5l0,36.4l-1,-0.2l-61.5,168.1l-14.1,-64.6c2.1,-0.6 3.7,-2.6 3.7,-5.1c0,-2.1 -1.1,-3.9 -2.7,-4.8l-2.1,-41.4c0,0 -1.3,30.2 -1.6,41.1c-1.9,0.7 -3.3,2.7 -3.3,5c0,2.6 1.7,4.7 3.9,5.2l-11.3,78.8l12.1,5.5l0,345l-0.3,5.2l153.1,0c-1,-4.1 -1.6,-8.4 -1.6,-12.9c0,-27.9 21.6,-50.5 48.3,-50.5c26.7,0 48.3,22.6 48.3,50.5c0,4.5 -0.6,8.8 -1.6,12.9l63.3,0c-1,-4.1 -1.6,-8.4 -1.6,-12.9c0,-27.9 21.6,-50.5 48.3,-50.5c26.7,0 48.3,22.6 48.3,50.5c0,4.5 -0.6,8.8 -1.6,12.9l59.9,0c-1,-4.1 -1.6,-8.4 -1.6,-12.9c0,-27.9 21.6,-50.5 48.3,-50.5c26.7,0 48.3,22.6 48.3,50.5c0,4.5 -0.6,8.8 -1.6,12.9l63.3,0c-1,-4.1 -1.6,-8.4 -1.6,-12.9c0,-27.9 21.6,-50.5 48.3,-50.5c26.7,0 48.3,22.6 48.3,50.5c0,4.5 -0.6,8.8 -1.6,12.9l56.7,0c-1,-4.1 -1.6,-8.4 -1.6,-12.9c0,-27.9 21.6,-50.5 48.3,-50.5c26.7,0 48.3,22.6 48.3,50.5c0,4.5 -0.6,8.8 -1.6,12.9l63.3,0c-1,-4.1 -1.6,-8.4 -1.6,-12.9c0,-27.9 21.6,-50.5 48.3,-50.5c26.7,0 48.3,22.6 48.3,50.5c0,4.5 -0.6,8.8 -1.6,12.9l59.6,0c-1,-4.1 -1.6,-8.4 -1.6,-12.9c0,-27.9 21.6,-50.5 48.3,-50.5c26.7,0 48.3,22.6 48.3,50.5c0,4.5 -0.6,8.8 -1.6,12.9l63.3,0c-1,-4.1 -1.6,-8.4 -1.6,-12.9c0,-27.9 21.6,-50.5 48.3,-50.5c26.7,0 48.3,22.6 48.3,50.5c0,4.5 -0.6,8.8 -1.6,12.9l153.4,0l-0.3,-5.2l0,-344.7Z" style="fill:#143436;fill-rule:nonzero;"/><path d="M1440.7,1248.7l12.1,5.5l-11.3,78.8c2.2,0.5 3.9,2.6 3.9,5.2c0,2.3 -1.4,4.3 -3.3,5c-0.3,10.9 -1.6,41.1 -1.6,41.1l-2.1,-41.4c-1.6,-0.9 -2.7,-2.7 -2.7,-4.8c0,-2.5 1.6,-4.6 3.7,-5.1l-14.1,-64.6l-61.5,168.1l-1,-0.2l0,36.4c1.9,0.7 3.2,2.7 3.2,5c0,2.3 -1.4,4.3 -3.3,5c-0.3,10.9 -1.6,41.1 -1.6,41.1l-2.1,-41.4c-1.6,-0.9 -2.7,-2.7 -2.7,-4.8c0,-2 1,-3.8 2.6,-4.7l0,-37.6l-22.9,-5.1l0,42.5c1.7,0.8 2.9,2.7 2.9,4.9c0,2.3 -1.4,4.3 -3.3,5c-0.3,10.9 -1.6,41.1 -1.6,41.1l-2.1,-41.4c-1.6,-0.9 -2.7,-2.7 -2.7,-4.8c0,-2.2 1.2,-4 2.9,-4.9l0,-48.4l-55.2,-156l-11,50.5l-12.1,-64.8l9.9,-9.9l-1.1,-257.1l-158.2,2.2l0,4.1l-8.5,51.1l-9.3,-51.9l0,-4.4l-135.1,0l0,4.7l-9.6,54.9l-8.2,-54.9l0,-5.5l-145.6,1.4l0,4.7l-8.8,51.4l-9.6,-51.9l0,-5.5l-47.3,0.4l0,0.4l-22.9,-0.2l-22.9,0.2l0,-0.4l-47.3,-0.4l0,5.5l-9.6,51.9l-8.8,-51.4l0,-4.7l-145.6,-1.4l0,5.5l-8.2,54.9l-9.6,-54.9l0,-4.7l-135.1,0l0,4.7l-9.3,51.9l-8.5,-51.1l0,-4.1l-158.2,-2.2l-1.1,257.1l9.9,9.9l-12.2,64.8l-11,-50.5l-55.2,156l0,48.4c1.7,0.8 2.9,2.7 2.9,4.9c0,2.1 -1.1,3.9 -2.7,4.8l-2.1,41.4c0,0 -1.3,-30.2 -1.6,-41.1c-1.9,-0.7 -3.3,-2.7 -3.3,-5c0,-2.2 1.2,-4 2.9,-4.9l0,-42.5l-22.9,5.1l0,37.6c1.5,0.9 2.6,2.6 2.6,4.7c0,2.1 -1.1,3.9 -2.7,4.8l-2.1,41.4c0,0 -1.3,-30.2 -1.6,-41.1c-1.9,-0.7 -3.3,-2.7 -3.3,-5c0,-2.3 1.4,-4.3 3.2,-5l0,-36.4l-1,0.2l-61.5,-168.1l-14.1,64.6c2.1,0.6 3.7,2.6 3.7,5.1c0,2.1 -1.1,3.9 -2.7,4.8l-2.1,41.4c0,0 -1.3,-30.2 -1.6,-41.1c-1.9,-0.7 -3.3,-2.7 -3.3,-5c0,-2.6 1.7,-4.7 3.9,-5.2l-11.3,-78.8l12.1,-5.5l0,-345l-0.3,-5.2l153.1,0c-1,4.1 -1.6,8.4 -1.6,12.9c0,27.9 21.6,50.5 48.3,50.5c26.7,0 48.3,-22.6 48.3,-50.5c0,-4.5 -0.6,-8.8 -1.6,-12.9l63.3,0c-1,4.1 -1.6,8.4 -1.6,12.9c0,27.9 21.6,50.5 48.3,50.5c26.7,0 48.3,-22.6 48.3,-50.5c0,-4.5 -0.6,-8.8 -1.6,-12.9l59.9,0c-1,4.1 -1.6,8.4 -1.6,12.9c0,27.9 21.6,50.5 48.3,50.5c26.7,0 48.3,-22.6 48.3,-50.5c0,-4.5 -0.6,-8.8 -1.6,-12.9l63.3,0c-1,4.1 -1.6,8.4 -1.6,12.9c0,27.9 21.6,50.5 48.3,50.5c26.7,0 48.3,-22.6 48.3,-50.5c0,-4.5 -0.6,-8.8 -1.6,-12.9l56.7,0c-1,4.1 -1.6,8.4 -1.6,12.9c0,27.9 21.6,50.5 48.3,50.5c26.7,0 48.3,-22.6 48.3,-50.5c0,-4.5 -0.6,-8.8 -1.6,-12.9l63.3,0c-1,4.1 -1.6,8.4 -1.6,12.9c0,27.9 21.6,50.5 48.3,50.5c26.7,0 48.3,-22.6 48.3,-50.5c0,-4.5 -0.6,-8.8 -1.6,-12.9l59.6,0c-1,4.1 -1.6,8.4 -1.6,12.9c0,27.9 21.6,50.5 48.3,50.5c26.7,0 48.3,-22.6 48.3,-50.5c0,-4.5 -0.6,-8.8 -1.6,-12.9l63.3,0c-1,4.1 -1.6,8.4 -1.6,12.9c0,27.9 21.6,50.5 48.3,50.5c26.7,0 48.3,-22.6 48.3,-50.5c0,-4.5 -0.6,-8.8 -1.6,-12.9l153.4,0l-0.3,5.2l0,344.7Z" style="fill:#3a6568;fill-rule:nonzero;"/><path d="M435.6,722.6l-0.8,-38.7l16.7,0.8l0,-44l-32.7,-1.5l-0.8,-142l22,-17.5l-30.4,-18.2c0,0 8.4,-1.5 9.1,-31.9c0.8,-30.4 -45.6,-51.6 -45.6,-51.6l7.6,-9.9l-49.4,-36.4l6.8,-11.4c0,0 -15.2,-7.6 -21.3,-13.7c-6.1,-6.1 6.1,-17.5 6.1,-17.5c-13.7,-12.9 0,-35.7 0,-35.7l-1,-9c6.1,-4 10.1,-10.9 10.1,-18.7c0,-9.5 -6,-17.7 -14.4,-20.9l-4.2,-38.8l8.2,1.8c1.3,2.1 3.5,3.6 6.2,3.6c4,0 7.2,-3.2 7.2,-7.2c0,-4 -3.2,-7.2 -7.2,-7.2c-3,0 -5.6,1.9 -6.7,4.5l-8.2,0l-3,-27.3l0,27.3l-16.7,0l16.7,3.7l0,38.1c-0.1,0 -0.3,0 -0.4,0c-12.4,0 -22.4,10 -22.4,22.4c0,12.4 10,22.4 22.4,22.4c0.1,0 0.3,0 0.4,0l0,3.8c0,0 -11.4,-0.8 -12.9,15.9c-1.5,16.7 8.4,33.4 8.4,33.4l-24.3,22l10.6,9.1l-50.5,35.7l7.6,9.9c0,0 -41.8,30.4 -45.6,50.9c-3.8,20.5 7.6,31.9 7.6,31.9l-26.6,18.2l22.8,17.5l0,142.8l-36.8,0l0,44l18.6,0l0,41c0,0 -3.8,2.3 -12.9,6.8c-9.1,4.5 -4.6,18.2 -4.6,18.2l17.5,0l0,223.2l-2.3,24.3l252.1,-5.3l-2.3,-243.8l19.7,-1.5c0.8,-17.4 -20.4,-23.5 -20.4,-23.5Z" style="fill:#0d2121;fill-rule:nonzero;"/></g></svg>